<svg xmlns="http://www.w3.org/2000/svg" enable-background="new 0 0 64 64" viewBox="0 0 64 64" id="Profit"><path d="M62,58h-1V12c0-1.103-0.897-2-2-2h-3c-1.103,0-2,0.897-2,2v46h-2V33c0-0.553-0.447-1-1-1s-1,0.447-1,1v25h-3V27h3v3c0,0.553,0.447,1,1,1s1-0.447,1-1v-3c0-1.103-0.897-2-2-2h-3c-1.103,0-2,0.897-2,2v31h-2V24c0-1.103-0.897-2-2-2h-3c-1.103,0-2,0.897-2,2v34h-2V41c0-1.103-0.897-2-2-2h-3c-1.103,0-2,0.897-2,2v17h-2V39c0-1.103-0.897-2-2-2h-3c-1.103,0-2,0.897-2,2v5c0,0.553,0.447,1,1,1s1-0.447,1-1v-5h3v19h-3V47c0-0.553-0.447-1-1-1s-1,0.447-1,1v11h-2v-5c0-1.103-0.897-2-2-2h-3c-1.103,0-2,0.897-2,2v5H6V2c0-1.103-0.897-2-2-2H2C0.897,0,0,0.897,0,2v60c0,1.103,0.897,2,2,2h60c1.103,0,2-0.897,2-2v-2C64,58.897,63.103,58,62,58z M56,12h3v46h-3V12z M38,24h3v34h-3V24z M29,41h3v17h-3V41z M11,53h3v5h-3V53z M62,62H2V2h2v57c0,0.553,0.447,1,1,1h6h3h6h3h6h3h6h3h6h3h6h3h3V62z" fill="#264a78" class="color000000 svgShape"></path><path d="M37.573,13.181c-0.253-0.177-0.571-0.227-0.867-0.137c-0.294,0.091-0.531,0.312-0.641,0.6l-7.519,19.737l-7.933-6.17c-0.242-0.188-0.555-0.254-0.855-0.182c-0.298,0.074-0.545,0.28-0.671,0.561l-9,20c-0.227,0.504-0.002,1.096,0.502,1.322C10.723,48.972,10.862,49,10.999,49c0.382,0,0.746-0.219,0.913-0.59l8.478-18.84l7.996,6.219c0.25,0.195,0.577,0.261,0.884,0.174c0.306-0.085,0.552-0.311,0.665-0.606l7.543-19.802l8.949,6.265c0.238,0.167,0.537,0.22,0.819,0.15c0.281-0.072,0.519-0.263,0.648-0.522l9.004-18.008l1.172,2.932C58.228,6.763,58.604,7,59,7c0.124,0,0.25-0.022,0.371-0.071c0.513-0.205,0.763-0.787,0.558-1.3l-2-5c-0.205-0.515-0.791-0.762-1.3-0.558l-5,2c-0.513,0.205-0.763,0.787-0.558,1.3c0.205,0.514,0.792,0.763,1.3,0.558l2.558-1.023l-8.305,16.61L37.573,13.181z" fill="#264a78" class="color000000 svgShape"></path></svg>