<svg version="1.1" xmlns="http://www.w3.org/2000/svg" width="2058" height="416">
<path d="M0 0 C3.86148955 3.47546275 7.45384304 7.20691528 11 11 C11.64324219 10.29875 12.28648437 9.5975 12.94921875 8.875 C28.2538808 -7.19380352 46.74734674 -14.68699778 68.86791992 -15.28320312 C91.61060179 -15.55576098 112.47664849 -8.72840835 130 6 C131.10988281 6.89138672 131.10988281 6.89138672 132.2421875 7.80078125 C149.29978966 22.05479828 159.45227684 44.16651007 162 66 C162.26188252 71.35215711 162.25422442 76.69344037 162.22705078 82.04980469 C162.22648537 83.62790927 162.22680576 85.20601437 162.22793579 86.78411865 C162.22850524 91.03125361 162.21681763 95.2782736 162.20278788 99.52538204 C162.1902119 103.977629 162.18910464 108.42987913 162.18673706 112.88214111 C162.18054235 121.29660049 162.16415895 129.71100735 162.14403808 138.1254437 C162.12161626 147.71198926 162.11066991 157.29853745 162.10064721 166.88510275 C162.07979076 186.59010424 162.04313987 206.29503383 162 226 C141.87 226 121.74 226 101 226 C100.9906543 221.36219482 100.98130859 216.72438965 100.97167969 211.94604492 C100.93789046 196.61110346 100.88253057 181.27629566 100.81609726 165.94146252 C100.77634979 156.64529838 100.74393553 147.34921837 100.72900391 138.05297852 C100.7159651 129.94691621 100.68894372 121.84103934 100.64538693 113.73508149 C100.6228221 109.44613266 100.60708632 105.15741212 100.60811615 100.86839867 C100.60886572 96.82419047 100.5907968 92.78048599 100.55883217 88.73640823 C100.55037445 87.25911192 100.54855494 85.78175883 100.55419731 84.30444908 C100.58703061 74.37915312 99.90420029 64.83832533 93.75 56.625 C87.42583834 50.58830024 80.59513054 47.11203205 71.75 46.625 C63.49961403 46.83654836 55.67866855 50.05091866 50 56 C44.9509762 62.68502033 42.76260063 69.28557129 42.7215271 77.72618103 C42.71036362 79.03999756 42.69920013 80.35381409 42.68769836 81.70744324 C42.68533391 83.14602632 42.68315817 84.58460973 42.68115234 86.02319336 C42.67184548 87.5513054 42.66167569 89.07941239 42.65071106 90.60751343 C42.62348238 94.74125392 42.60828287 98.87496046 42.59528303 103.00876689 C42.5796212 107.33429897 42.55284074 111.65976206 42.5272522 115.98524475 C42.48051838 124.16961566 42.44374818 132.35399962 42.41057932 140.53843552 C42.37231976 149.85889853 42.32291966 159.17929215 42.27259517 168.49969661 C42.16935557 187.66641949 42.08153981 206.83317168 42 226 C21.87 226 1.74 226 -19 226 C-19.01458252 221.35172119 -19.02916504 216.70344238 -19.04418945 211.91430664 C-19.09452913 196.55541677 -19.16097349 181.19662776 -19.23571491 165.83783817 C-19.28063692 156.52593685 -19.32005987 147.21407346 -19.34643555 137.90209961 C-19.36944475 129.78362925 -19.4028754 121.66527931 -19.44870156 113.5469045 C-19.4725944 109.25023115 -19.49134895 104.95367677 -19.49761391 100.65693855 C-19.50368263 96.60788429 -19.52374664 92.55913428 -19.55427551 88.51019287 C-19.56302719 87.02882949 -19.5667843 85.5474263 -19.56500816 84.06603813 C-19.55614266 73.25423446 -20.14451268 63.14787518 -28 55 C-34.81151852 49.34761178 -41.78691896 46.40372186 -50.796875 46.6875 C-58.49229678 47.77904919 -66.03176835 50.88027716 -71 57 C-74.79812722 63.34010299 -77.11645402 68.85503695 -77.15821838 76.28312683 C-77.17290161 78.25822487 -77.17290161 78.25822487 -77.18788147 80.27322388 C-77.19378571 81.73577845 -77.19959615 83.1983334 -77.20532227 84.66088867 C-77.21490062 86.19826013 -77.22491067 87.73562895 -77.23532104 89.272995 C-77.26238085 93.45035322 -77.2833846 97.62772276 -77.30332303 101.80512023 C-77.32517593 106.16936163 -77.35256803 110.53356812 -77.37937927 114.89778137 C-77.42931556 123.16374914 -77.47425093 131.42973628 -77.51740164 139.69574195 C-77.566766 149.10557087 -77.6216871 158.51536476 -77.67708123 167.92515981 C-77.79091566 187.28340883 -77.89701794 206.64169 -78 226 C-98.13 226 -118.26 226 -139 226 C-139 147.79 -139 69.58 -139 -11 C-123 -11 -123 -11 -119 -7.5625 C-117.98228013 -6.0534671 -116.9833682 -4.53163998 -116 -3 C-114.54571799 -1.31157599 -113.06626907 0.35549691 -111.5625 2 C-110.88316406 2.763125 -110.20382812 3.52625 -109.50390625 4.3125 C-109.00761719 4.869375 -108.51132813 5.42625 -108 6 C-107.51273438 5.6596875 -107.02546875 5.319375 -106.5234375 4.96875 C-75.07605106 -16.52982691 -32.64617344 -25.33942587 0 0 Z " fill="#E95D1F" transform="translate(1288,115)"/>
<path d="M0 0 C3.74351734 0.02527067 7.48705212 0.02737561 11.2306416 0.03210163 C18.29574836 0.04445697 25.36060292 0.07717589 32.4255994 0.11749959 C41.9893855 0.17088213 51.5532422 0.19222303 61.11714005 0.21550846 C76.15116951 0.25294425 91.18466718 0.33268365 106.21866345 0.40557575 C106.21866345 20.53557575 106.21866345 40.66557575 106.21866345 61.40557575 C92.57135877 61.44424763 92.57135877 61.44424763 78.64835095 61.48370075 C72.88791269 61.50886416 67.12750795 61.53502992 61.36710095 61.565732 C52.22192095 61.61428757 43.07685247 61.65872503 33.93155408 61.67657185 C27.27104455 61.6895885 20.61076163 61.71655325 13.95037973 61.76018882 C10.42449497 61.78280367 6.89888972 61.79848644 3.372926 61.7974596 C-0.56560979 61.79657417 -4.50357507 61.82683233 -8.44198108 61.85967731 C-9.60795321 61.85464695 -10.77392535 61.84961658 -11.97522998 61.84443378 C-18.18863686 61.92471081 -22.10784807 62.13910932 -26.78133655 66.40557575 C-29.69936948 70.78262515 -30.42181963 74.19021347 -29.78133655 79.40557575 C-28.31962093 83.41084172 -26.86118479 85.75847324 -23.15375781 87.98016071 C-19.29291895 89.61201431 -16.54351251 89.78368946 -12.36165881 89.79034138 C-11.64360568 89.79571415 -10.92555255 89.80108692 -10.18574023 89.80662251 C-8.63403574 89.81636531 -7.082277 89.81935527 -5.530545 89.81626606 C-3.05992248 89.81175672 -0.59000474 89.8258804 1.88054395 89.84466267 C7.13907232 89.88136003 12.39752602 89.89511403 17.65616345 89.90557575 C23.72537581 89.9177301 29.79424406 89.9397492 35.86330342 89.98557758 C38.27091919 89.99894359 40.67807668 89.99501242 43.08571362 89.99017048 C55.57945303 90.034851 67.99391702 91.22585565 79.46866345 96.59307575 C80.13140271 96.89495808 80.79414197 97.1968404 81.47696424 97.50787067 C99.38743897 105.97270735 111.75319326 120.10963889 118.65616345 138.46807575 C121.19255607 145.84977444 121.43221263 152.71772006 121.46866345 160.46807575 C121.49960095 162.07199177 121.49960095 162.07199177 121.53116345 163.70831013 C121.62803093 183.74776909 113.09274227 201.24639826 99.53116345 215.65557575 C83.3679016 231.0432012 64.3859496 236.75198598 42.40567517 236.63262653 C40.93623861 236.63206132 39.46680148 236.63238113 37.99736524 236.63351154 C34.03728949 236.63408175 30.07733667 236.62238164 26.1172893 236.60836363 C21.96799185 236.59580051 17.8186911 236.59468139 13.66937757 236.59231281 C5.82504687 236.58611437 -2.0192276 236.56972583 -9.86353362 236.54961383 C-18.79950052 236.52720374 -27.7354702 236.51624859 -36.67145824 236.50622296 C-55.04145596 236.48535803 -73.41137667 236.4487024 -91.78133655 236.40557575 C-91.78133655 216.27557575 -91.78133655 196.14557575 -91.78133655 175.40557575 C-87.4756261 175.39099323 -83.16991565 175.37641071 -78.73372912 175.3613863 C-64.52432762 175.31110024 -50.31503575 175.24466666 -36.10574317 175.16986084 C-27.48874962 175.12489188 -18.87179751 175.08547977 -10.25472522 175.05914021 C-2.74423573 175.03616901 4.76612277 175.00278088 12.27650839 174.95687419 C16.25335745 174.93293003 20.23007669 174.91420911 24.2069962 174.90796185 C27.95072208 174.90191633 31.69411571 174.88193612 35.43771863 174.85130024 C37.46563851 174.83832281 39.49363599 174.84009141 41.52159619 174.84229755 C43.33674222 174.82349033 43.33674222 174.82349033 45.18855786 174.80430317 C46.23848007 174.7996942 47.28840228 174.79508524 48.37014031 174.79033661 C52.67254404 174.20919457 55.3202048 172.56073688 57.96866345 169.15557575 C59.49993623 165.78677564 60.08641578 163.1085107 60.21866345 159.40557575 C58.96232699 156.26473458 58.07519859 154.8506807 55.06384778 153.28580952 C51.54224717 152.19630831 48.50885863 152.14635718 44.82071424 152.13433552 C44.09305356 152.12910877 43.36539289 152.12388203 42.61568189 152.11849689 C41.0399451 152.10828255 39.46417482 152.10248097 37.88840604 152.1006155 C35.38016054 152.09693235 32.87230367 152.08014713 30.36414075 152.05985737 C23.2340169 152.00467119 16.10383385 151.973979 8.97354627 151.94927692 C4.60394153 151.93323133 0.23460708 151.90282739 -4.13485599 151.86451244 C-5.78591634 151.85299787 -7.43702544 151.8469333 -9.08812594 151.84683132 C-22.73829818 151.84568372 -36.17198113 150.98014134 -48.59383655 144.71807575 C-49.30539905 144.36994831 -50.01696155 144.02182087 -50.75008655 143.66314411 C-56.74456981 140.62836871 -61.86524741 136.99858266 -66.78133655 132.40557575 C-67.94729358 131.35756794 -67.94729358 131.35756794 -69.1368053 130.28838825 C-82.69846371 117.52180193 -91.30174453 98.93039955 -91.98446155 80.2766695 C-92.38211918 57.70896528 -85.76524372 38.36509483 -70.14852405 21.74932575 C-62.4740302 14.15081699 -53.94121767 8.23207625 -43.78133655 4.40557575 C-42.92355609 4.06848591 -42.06577563 3.73139606 -41.18200183 3.38409138 C-27.83886087 -0.98848131 -13.87319608 -0.10967653 0 0 Z " fill="#E95D1F" transform="translate(1936.7813365459442,104.5944242477417)"/>
<path d="M0 0 C0.54462891 0.43683105 1.08925781 0.87366211 1.65039062 1.32373047 C24.04556621 19.30530337 24.04556621 19.30530337 25 28 C24.00292969 29.80834961 24.00292969 29.80834961 22.421875 31.65234375 C21.84332764 32.33989746 21.26478027 33.02745117 20.66870117 33.73583984 C20.03552979 34.4623877 19.4023584 35.18893555 18.75 35.9375 C17.78960815 37.06986084 17.78960815 37.06986084 16.80981445 38.22509766 C14.88375532 40.49265664 12.94240586 42.74644433 11 45 C9.50841648 46.75616798 8.02186024 48.51646619 6.53613281 50.27758789 C5.19808039 51.86246787 3.85499334 53.44298325 2.51171875 55.0234375 C-0.60177097 58.71314072 -3.64918277 62.45388842 -6.6953125 66.19921875 C-9.22033075 69.26775787 -11.79484769 72.29039812 -14.375 75.3125 C-18.15792492 79.74851603 -21.80532737 84.26600643 -25.375 88.875 C-29.83051671 94.62027155 -34.51143405 100.13095441 -39.29980469 105.60058594 C-43.21941644 110.08114391 -47.01988121 114.6420339 -50.765625 119.26953125 C-53.26158819 122.31966808 -55.8154731 125.31578405 -58.375 128.3125 C-62.67098008 133.35221694 -66.78781983 138.50912843 -70.8503418 143.73803711 C-75.72001848 149.97826882 -80.84376198 155.99602458 -86 162 C-79.39318703 165.30340648 -66.247219 163.66532913 -59.1875 161.9375 C-41.03107605 155.87596095 -29.68954599 145.31314608 -20 129 C-13.99906565 133.97360048 -8.49681319 139.35357421 -3 144.875 C-1.70449219 146.16470703 -1.70449219 146.16470703 -0.3828125 147.48046875 C4.05324652 151.9232695 8.32807641 156.43348906 12.41845703 161.19580078 C14.8058214 163.91926831 17.35453158 166.463475 19.9375 169 C20.67709961 169.73283203 20.67709961 169.73283203 21.43164062 170.48046875 C22.61873229 171.65603525 23.80900498 172.82838826 25 174 C21.06335193 180.34712187 16.75662819 185.76364973 11.4375 191 C10.73423584 191.69424072 10.03097168 192.38848145 9.30639648 193.10375977 C-13.88479912 215.53931963 -45.14279225 226.4649158 -77.1640625 226.15234375 C-111.1398452 224.80300004 -140.86549144 211.23940992 -164.25 186.6875 C-177.72364194 171.24803161 -187.05004181 152.85739042 -192 133 C-192.24556641 132.01870117 -192.24556641 132.01870117 -192.49609375 131.01757812 C-200.39267428 97.57131763 -194.7176644 60.29680571 -177.15283203 30.85009766 C-174.10517033 25.95912342 -170.68068054 21.43569193 -167 17 C-166.27683594 16.10152344 -165.55367187 15.20304687 -164.80859375 14.27734375 C-153.7447447 1.2665568 -139.63999763 -8.33994207 -124 -15 C-123.33613281 -15.28456055 -122.67226563 -15.56912109 -121.98828125 -15.86230469 C-82.93757062 -32.27191181 -33.13765713 -27.46937367 0 0 Z M-119 57 C-131.19234359 72.50498033 -134.32623124 90.83419814 -133 110 C-132.169947 116.88420534 -130.75108259 123.61270389 -128 130 C-127.34 130 -126.68 130 -126 130 C-124.65128674 128.53825674 -124.65128674 128.53825674 -123.3046875 126.58203125 C-122.76183105 125.83284424 -122.21897461 125.08365723 -121.65966797 124.31176758 C-121.07072754 123.48700928 -120.48178711 122.66225098 -119.875 121.8125 C-118.60575219 120.0613497 -117.33485714 118.31139241 -116.0625 116.5625 C-115.06476563 115.18964844 -115.06476563 115.18964844 -114.046875 113.7890625 C-110.71636831 109.25092934 -107.29739445 104.78151712 -103.875 100.3125 C-99.2224454 94.22851793 -94.58425765 88.13563513 -90 82 C-85.30766993 75.72171253 -80.56665884 69.48157973 -75.8125 63.25 C-74.45438785 61.46747781 -73.09631379 59.68492659 -71.73828125 57.90234375 C-69.49093531 54.9529503 -67.23879693 52.00739522 -64.98046875 49.06640625 C-64.15342843 47.9819366 -63.32658432 46.89731726 -62.5 45.8125 C-61.8090625 44.91144531 -61.118125 44.01039063 -60.40625 43.08203125 C-58.81342895 41.14251247 -58.81342895 41.14251247 -59 39 C-80.92099548 31.93782362 -103.75353505 40.61361244 -119 57 Z " fill="#E95D1F" transform="translate(988,120)"/>
<path d="M0 0 C21.8035251 18.20454579 36.4487601 42.89331623 39.9375 71.25 C40.19784318 76.23367767 40.1919795 81.20943854 40.16455078 86.19824219 C40.16398522 87.65812167 40.16430605 89.11800171 40.16543579 90.57788086 C40.16600466 94.50271603 40.15432673 98.42742649 40.14028788 102.35223293 C40.12770196 106.46815276 40.12660387 110.58407611 40.12423706 114.70001221 C40.11804523 122.47698627 40.10166581 130.25390344 40.08153808 138.03085256 C40.0591072 146.89189739 40.04816765 155.75294508 40.03814721 164.61401129 C40.01729729 182.82604623 39.9806501 201.0380033 39.9375 219.25 C19.8075 219.25 -0.3225 219.25 -21.0625 219.25 C-21.08437378 212.8761499 -21.08437378 212.8761499 -21.10668945 206.37353516 C-21.15705804 192.32382332 -21.22350809 178.27422141 -21.29821491 164.22461891 C-21.3431117 155.70753851 -21.38254037 147.19049934 -21.40893555 138.67333984 C-21.43196529 131.24666964 -21.46541859 123.82013063 -21.51120156 116.39356458 C-21.53506693 112.46406404 -21.55383937 108.53469288 -21.56011391 104.60512161 C-21.56619522 100.89995713 -21.58630372 97.19512342 -21.61677551 93.49008179 C-21.62964365 91.49532937 -21.62799417 89.50049948 -21.6257782 87.50570679 C-21.75640877 74.91417871 -24.7721709 63.36800399 -33.2890625 53.73046875 C-42.18777818 45.2131266 -53.06770396 40.35528657 -65.375 39.9375 C-75.62744631 40.1640734 -86.91935643 43.4925922 -94.5625 50.5625 C-95.305 51.3978125 -95.305 51.3978125 -96.0625 52.25 C-96.7225 52.25 -97.3825 52.25 -98.0625 52.25 C-98.33191406 52.81203125 -98.60132813 53.3740625 -98.87890625 53.953125 C-100.13488047 56.3904611 -101.54564559 58.67599347 -103 61 C-109.65888208 72.06024072 -110.21030078 82.06758272 -110.26782227 94.71264648 C-110.27741378 96.07327056 -110.28742459 97.43389173 -110.29782104 98.79450989 C-110.32473834 102.4716454 -110.34581878 106.14879357 -110.36582303 109.82597232 C-110.38776436 113.67502543 -110.41511301 117.5240401 -110.44187927 121.37306213 C-110.49169642 128.65433081 -110.53667575 135.93562094 -110.57990164 143.2169314 C-110.63862487 153.06140189 -110.70485243 162.90582174 -110.77065182 172.750247 C-110.87405467 188.25013049 -110.96745795 203.75005776 -111.0625 219.25 C-131.1925 219.25 -151.3225 219.25 -172.0625 219.25 C-172.0625 141.04 -172.0625 62.83 -172.0625 -17.75 C-156.0625 -17.75 -156.0625 -17.75 -150.5625 -12.875 C-149.02287353 -10.86304744 -147.52248179 -8.8204724 -146.0625 -6.75 C-144.52929465 -4.84731729 -142.9882273 -2.95092924 -141.4375 -1.0625 C-140.30865419 0.37198193 -139.18209527 1.80828654 -138.0625 3.25 C-134.67523962 2.65048489 -132.89633933 1.48243718 -130.3125 -0.75 C-92.67271754 -30.65305719 -37.56311659 -28.95367385 0 0 Z " fill="#E95D1F" transform="translate(1771.0625,121.75)"/>
<path d="M0 0 C9.85347047 8.47392316 20.27677711 18.02682551 26.19140625 29.7890625 C25.85668048 33.63001226 23.88844034 35.45647946 21.22241211 38.09863281 C20.38161606 38.93920227 19.54082001 39.77977173 18.67454529 40.64581299 C17.30423912 41.99289337 17.30423912 41.99289337 15.90625 43.3671875 C14.51002159 44.75704865 14.51002159 44.75704865 13.08558655 46.17498779 C10.61467504 48.63446237 8.13488656 51.08479351 5.65313721 53.5333252 C3.12075372 56.03498301 0.59687495 58.54518872 -1.92773438 61.0546875 C-6.87973328 65.97454263 -11.84116324 70.88479003 -16.80859375 75.7890625 C-19.80859375 74.7890625 -19.80859375 74.7890625 -21.09765625 72.41796875 C-21.53851562 71.40605469 -21.979375 70.39414063 -22.43359375 69.3515625 C-25.5979864 62.74795402 -29.62001243 57.90430699 -34.80859375 52.7890625 C-35.37320313 52.21414062 -35.9378125 51.63921875 -36.51953125 51.046875 C-47.21763974 40.97499725 -62.01634691 37.12943181 -76.36328125 37.5078125 C-92.49477792 38.82466937 -104.93115445 46.20566381 -115.7734375 57.91015625 C-128.93375913 73.60463171 -132.38162144 93.95580502 -130.80859375 113.7890625 C-128.87687661 129.15656226 -119.90670509 142.38596968 -108.05859375 152.0390625 C-93.69216032 162.13284407 -77.79863568 164.7175144 -60.69140625 162.359375 C-43.52810197 158.23407041 -30.58255016 148.08962368 -21.44799805 133.25952148 C-20.55663784 131.77625364 -19.6808069 130.28366972 -18.80859375 128.7890625 C-14.25689779 132.40972974 -10.29926101 136.35589054 -6.40234375 140.6640625 C0.1707399 147.85571338 7.02766616 154.73934494 13.94140625 161.6015625 C15.13956161 162.79468223 16.33747927 163.9880407 17.53515625 165.18164062 C20.41785729 168.05352377 23.30369569 170.9222169 26.19140625 173.7890625 C22.32927068 179.6629371 17.97970108 184.65703365 13.19140625 189.7890625 C12.57394531 190.47226562 11.95648437 191.15546875 11.3203125 191.859375 C-9.55028353 214.03157809 -39.94877497 224.15470086 -69.640625 226.03125 C-90.89033939 226.46838698 -111.02638288 221.61622153 -129.80859375 211.7890625 C-130.83339844 211.25539063 -131.85820313 210.72171875 -132.9140625 210.171875 C-160.18035193 195.11598467 -180.92050016 169.36037578 -189.84765625 139.4765625 C-199.50114337 102.43228671 -193.29217806 64.7951975 -174.13671875 31.94921875 C-157.2995137 4.56399996 -129.67139188 -15.23043026 -98.56152344 -22.75439453 C-64.45762386 -30.2757758 -27.10245056 -22.38935012 0 0 Z " fill="#E95D1F" transform="translate(750.80859375,120.2109375)"/>
<path d="M0 0 C16.31767844 -3.59134945 32.65489105 -5.88034937 49.3125 -7.1875 C50.55618725 -7.28564751 51.7998745 -7.38379501 53.08124924 -7.48491669 C87.00113447 -9.83860248 112.04244797 -4.13522523 137.91596985 18.12950134 C151.89962789 30.44733961 164.87739896 43.7396099 177.5625 57.375 C178.20153904 58.06004876 178.84057809 58.74509751 179.49898195 59.45090532 C193.1095254 74.05452872 206.40159496 88.92540747 219.23657227 104.21630859 C219.6942441 104.75981354 220.15191592 105.30331849 220.6234566 105.86329329 C221.88674674 107.3681779 223.14092801 108.88069538 224.39454651 110.39364624 C225.09582955 111.2398522 225.7971126 112.08605816 226.51964664 112.95790672 C228 115 228 115 228 117 C226.375 118.48828125 226.375 118.48828125 224 120.3125 C222.62714844 121.38371094 222.62714844 121.38371094 221.2265625 122.4765625 C220.71254883 122.87649414 220.19853516 123.27642578 219.66894531 123.68847656 C216.53880551 126.1482646 213.46065093 128.67230869 210.375 131.1875 C208.989636 132.31386687 207.60421853 133.44016796 206.21875 134.56640625 C203.44613363 136.82203985 200.67555645 139.08014816 197.90625 141.33984375 C191.58530797 146.49292667 185.24595156 151.61282979 178.8125 156.625 C173.726478 160.58874751 168.78366515 164.68989744 163.88500977 168.88208008 C159.52046797 172.60046176 155.03761304 176.14505256 150.51171875 179.6640625 C145.77264058 183.36158503 141.1282429 187.16496225 136.5 191 C131.30560076 195.30416415 126.07558739 199.54670621 120.75 203.6875 C116.24333848 207.19268118 111.83769264 210.78778481 107.5 214.5 C102.60338834 218.69054039 97.59926205 222.70835467 92.51171875 226.6640625 C87.77264058 230.36158503 83.1282429 234.16496225 78.5 238 C73.30560076 242.30416415 68.07558739 246.54670621 62.75 250.6875 C58.24333848 254.19268118 53.83769264 257.78778481 49.5 261.5 C45.16229883 265.21222249 40.75652791 268.80713896 36.25 272.3125 C30.97257501 276.41880687 25.77882279 280.6145689 20.625 284.875 C19.91206787 285.4642627 19.19913574 286.05352539 18.46459961 286.66064453 C17.75053955 287.25087402 17.03647949 287.84110352 16.30078125 288.44921875 C7.22488568 295.95061967 -1.90005089 303.38676658 -11.1875 310.625 C-16.27344746 314.58884733 -21.21633028 318.68989353 -26.11499023 322.88208008 C-30.47953203 326.60046176 -34.96238696 330.14505256 -39.48828125 333.6640625 C-44.22735942 337.36158503 -48.8717571 341.16496225 -53.5 345 C-58.69439924 349.30416415 -63.92441261 353.54670621 -69.25 357.6875 C-73.75666152 361.19268118 -78.16230736 364.78778481 -82.5 368.5 C-87.39303423 372.68747881 -92.39310608 376.70290049 -97.47729492 380.65527344 C-103.07060083 385.01874687 -108.53276021 389.53478455 -113.99682617 394.05834961 C-118.92650684 398.13346874 -123.90179919 402.13640622 -129 406 C-129 401.65062473 -126.30413931 399.77741924 -123.4375 396.8125 C-122.32215977 395.63352808 -121.20757191 394.45384393 -120.09375 393.2734375 C-119.55492188 392.70592773 -119.01609375 392.13841797 -118.4609375 391.55371094 C-116.73824185 389.7216195 -115.07800693 387.84338306 -113.4375 385.9375 C-110.52202027 382.56580828 -107.5192222 379.27859162 -104.5 376 C-100.87907279 372.06717596 -97.31041014 368.09785918 -93.80859375 364.05859375 C-90.7222052 360.54557698 -87.55371222 357.10700182 -84.40234375 353.65234375 C-82.43058156 351.47539004 -80.48634663 349.28161326 -78.5625 347.0625 C-75.13231424 343.11332633 -71.58996482 339.26977695 -68.04711914 335.42211914 C-65.49459547 332.6452363 -62.97024254 329.85027985 -60.5 327 C-57.0932265 323.0691075 -53.56997215 319.24803427 -50.046875 315.421875 C-47.49444857 312.64505943 -44.97016712 309.85019283 -42.5 307 C-39.5615599 303.6094922 -36.53885858 300.3003097 -33.5 297 C-29.87909866 293.06715159 -26.31041075 289.09785988 -22.80859375 285.05859375 C-19.7222052 281.54557698 -16.55371222 278.10700182 -13.40234375 274.65234375 C-11.43058156 272.47539004 -9.48634663 270.28161326 -7.5625 268.0625 C-4.13231424 264.11332633 -0.58996482 260.26977695 2.95288086 256.42211914 C5.50540453 253.6452363 8.02975746 250.85027985 10.5 248 C13.9067735 244.0691075 17.43002785 240.24803427 20.953125 236.421875 C23.50555143 233.64505943 26.02983288 230.85019283 28.5 228 C31.9067735 224.0691075 35.43002785 220.24803427 38.953125 216.421875 C41.50555143 213.64505943 44.02983288 210.85019283 46.5 208 C49.43844065 204.60949156 52.46116302 201.30033018 55.5 198 C59.1441694 194.04140277 62.73913779 190.04823168 66.265625 185.984375 C69.79500714 181.94625309 73.40634226 177.98085319 77 174 C78.50028679 172.33359149 80.00028872 170.66692647 81.5 169 C95 154 95 154 108.5 139 C109.23476562 138.18273437 109.96953125 137.36546875 110.7265625 136.5234375 C112.3012727 134.77556329 113.8796501 133.03098862 115.4609375 131.2890625 C116.25757813 130.40992188 117.05421875 129.53078125 117.875 128.625 C118.59429687 127.83351563 119.31359375 127.04203125 120.0546875 126.2265625 C121.81370284 124.21323169 123.40982228 122.14671176 125 120 C122.337658 117.30818725 119.66933333 114.62237853 117 111.9375 C116.25621094 111.18533203 115.51242188 110.43316406 114.74609375 109.65820312 C110.55582621 105.44971703 106.27911602 101.42963464 101.77734375 97.55688477 C99.40447371 95.47834188 97.19999956 93.25945901 95 91 C92.08373397 88.04816975 89.15394165 85.19611141 86 82.5 C81.92376781 79.01547893 78.20449127 75.21918019 74.4375 71.40625 C72.34999365 69.34550655 70.22830777 67.40484374 68 65.5 C63.92376781 62.01547893 60.20449127 58.21918019 56.4375 54.40625 C54.34999365 52.34550655 52.22830777 50.40484374 50 48.5 C45.92376781 45.01547893 42.20449127 41.21918019 38.4375 37.40625 C36.34999365 35.34550655 34.22830777 33.40484374 32 31.5 C27.92376781 28.01547893 24.20449127 24.21918019 20.4375 20.40625 C18.34999365 18.34550655 16.22830777 16.40484374 14 14.5 C9.0737439 10.28037899 4.42931979 5.73791994 0 1 C0 0.67 0 0.34 0 0 Z " fill="#E95D1F" transform="translate(130,10)"/>
<path d="M0 0 C1.23750708 0.00138269 1.23750708 0.00138269 2.50001431 0.00279331 C3.44377422 0.00141865 4.38753414 0.00004398 5.35989285 -0.00137234 C6.40358028 0.00222294 7.44726772 0.00581821 8.52258205 0.00952244 C9.61512798 0.00937641 10.70767391 0.00923038 11.83332729 0.00907993 C15.46405899 0.00977961 19.09474012 0.01757454 22.72546291 0.02539158 C25.2351011 0.02725557 27.74473964 0.02867956 30.25437832 0.0296793 C36.1971526 0.03311435 42.1399105 0.0410051 48.08267635 0.05102879 C55.50982591 0.0632853 62.93697771 0.06866991 70.36413479 0.0742197 C83.6187014 0.08495972 96.87325287 0.101847 110.12780666 0.12304783 C107.31049128 3.02926728 104.61091331 5.67736325 101.2193594 7.89257908 C100.47918575 8.38029285 99.73901211 8.86800663 98.97640896 9.37049961 C97.78097973 10.14519848 97.78097973 10.14519848 96.56140041 10.93554783 C95.71111263 11.49354572 94.86082485 12.05154362 93.98477077 12.62645054 C91.18184362 14.46415311 88.37356816 16.29350952 85.56530666 18.12304783 C83.59931385 19.41025351 81.63374412 20.69810556 79.66857815 21.98657322 C75.56647098 24.6753875 71.4625355 27.3613775 67.35729885 30.04541111 C58.38318562 35.91574181 49.43064173 41.81877023 40.47842312 47.72241306 C37.78274511 49.49960549 35.08614854 51.27539513 32.38928127 53.0507822 C23.81147328 58.69981264 15.24783557 64.36907251 6.70593166 70.07226658 C-3.13114319 76.64004907 -13.00303408 83.15400409 -22.88415623 89.65527439 C-41.40981246 101.84141763 -41.40981246 101.84141763 -59.87219334 114.12304783 C-72.14732884 122.33710668 -84.49152345 130.44625181 -96.82727146 138.56884861 C-108.06480763 145.96894936 -119.29243171 153.38174594 -130.47497654 160.86474705 C-142.8095522 169.10525156 -155.21240256 177.2430466 -167.60461521 185.39648533 C-176.54410582 191.28016313 -185.47208197 197.17993506 -194.37219334 203.12304783 C-204.18298657 209.6742749 -214.02897329 216.17107076 -223.88415623 222.65527439 C-242.40981246 234.84141763 -242.40981246 234.84141763 -260.87219334 247.12304783 C-273.14732884 255.33710668 -285.49152345 263.44625181 -297.82727146 271.56884861 C-309.06480763 278.96894936 -320.29243171 286.38174594 -331.47497654 293.86474705 C-343.8095522 302.10525156 -356.21240256 310.2430466 -368.60461521 318.39648533 C-382.0087299 327.21844214 -395.36777003 336.10632385 -408.71133518 345.0195322 C-414.51693298 348.89648515 -420.32776233 352.76538388 -426.1453867 356.62426853 C-428.12423794 357.93902678 -430.10106 359.25684326 -432.07605076 360.57739353 C-434.97582022 362.51552038 -437.88217317 364.44337683 -440.79016209 366.36914158 C-441.67640766 366.9647237 -442.56265324 367.56030582 -443.47575474 368.17393589 C-444.28873524 368.70942554 -445.10171574 369.2449152 -445.93933201 369.79663181 C-447.01014263 370.50939526 -447.01014263 370.50939526 -448.10258579 371.23655796 C-448.68655628 371.52909962 -449.27052677 371.82164127 -449.87219334 372.12304783 C-450.53219334 371.79304783 -451.19219334 371.46304783 -451.87219334 371.12304783 C-444.89141961 365.08779676 -437.90825378 359.08253027 -430.66906834 353.35742283 C-427.01862311 350.44114536 -423.41399201 347.4710577 -419.80969334 344.49804783 C-419.08161472 343.89750584 -418.35353611 343.29696384 -417.60339451 342.67822361 C-416.10544741 341.44223318 -414.60764617 340.20606597 -413.10998631 338.96972752 C-409.53307539 336.01797602 -405.95251003 333.0706665 -402.37219334 330.12304783 C-400.95550786 328.956404 -399.53884123 327.7897373 -398.12219334 326.62304783 C-327.99719334 268.87304783 -257.87219334 211.12304783 -30.49328709 23.869874 C-29.08958477 22.71385534 -27.68593809 21.55776912 -26.28234959 20.40161228 C-22.5428035 17.32144845 -18.80204212 14.2427748 -15.05969334 11.16601658 C-14.27529881 10.5208408 -13.49090427 9.87566502 -12.68274021 9.21093845 C-11.16876877 7.96571934 -9.65445819 6.7209124 -8.13977146 5.47656345 C-7.46365818 4.92033298 -6.7875449 4.36410252 -6.09094334 3.79101658 C-5.19278904 3.05274632 -5.19278904 3.05274632 -4.27649021 2.2995615 C-1.66210345 0.1092399 -1.66210345 0.1092399 0 0 Z " fill="#E95D1F" transform="translate(544.8721933364868,9.876952171325684)"/>
<path d="M0 0 C20.46 0 40.92 0 62 0 C62 109.23 62 218.46 62 331 C41.54 331 21.08 331 0 331 C0 221.77 0 112.54 0 0 Z " fill="#E95D1F" transform="translate(1042,10)"/>
<path d="M0 0 C20.13 0 40.26 0 61 0 C61 78.21 61 156.42 61 237 C40.87 237 20.74 237 0 237 C0 158.79 0 80.58 0 0 Z " fill="#E95D1F" transform="translate(1493,104)"/>
<path d="M0 0 C5.11397189 4.18415882 9.77620056 8.69508687 14.38378906 13.42089844 C17.06409414 16.14794257 19.80982243 18.72778073 22.71508789 21.21508789 C26.8980233 24.85932663 30.82204331 28.71020881 34.71875 32.65625 C35.77201477 33.7151947 35.77201477 33.7151947 36.84655762 34.79553223 C39.81383766 37.77897375 42.77505363 40.7684071 45.73681641 43.75732422 C47.91618465 45.95490579 50.09864947 48.14937938 52.28125 50.34375 C52.936698 51.00749634 53.592146 51.67124268 54.26745605 52.35510254 C58.0540046 56.16137144 61.96186558 59.74251194 66.02526855 63.25012207 C69.3235837 66.17287336 72.40524737 69.30221335 75.5 72.4375 C76.17998047 73.12126709 76.85996094 73.80503418 77.56054688 74.50952148 C80.43225143 77.39737773 83.29788438 80.29123075 86.1640625 83.18457031 C88.27392787 85.31265725 90.38689645 87.43762917 92.5 89.5625 C93.13357422 90.20437256 93.76714844 90.84624512 94.41992188 91.50756836 C97.51460649 94.61889543 100.65697409 97.6121145 103.97973633 100.47973633 C108.12207564 104.05720834 111.97951401 107.8690269 115.82421875 111.76171875 C116.53351028 112.47479691 117.24280182 113.18787506 117.97358704 113.92256165 C120.21403081 116.175101 122.45117211 118.43087481 124.6875 120.6875 C127.64682084 123.67348997 130.60949051 126.65609871 133.57421875 129.63671875 C134.58061653 130.65556404 134.58061653 130.65556404 135.60734558 131.69499207 C138.31187607 134.41360272 140.94680933 136.95809498 143.96411133 139.33520508 C144.97187622 140.15927856 144.97187622 140.15927856 146 141 C146 141.66 146 142.32 146 143 C136.20055962 143.13267637 126.40109309 143.26317849 116.60159016 143.39115143 C112.04777454 143.45068334 107.49396991 143.51087336 102.94018555 143.57275391 C102.06222887 143.58461227 101.18427219 143.59647064 100.27971077 143.60868835 C98.51538861 143.63256226 96.75106948 143.65666057 94.98675346 143.6809845 C90.62101463 143.73990996 86.25544426 143.79055328 81.88943481 143.82446289 C80.17970558 143.83842931 78.46997853 143.8526676 76.76025391 143.8671875 C75.51597972 143.87772408 75.51597972 143.87772408 74.24656868 143.88847351 C69.61894021 143.93825198 65.00417794 144.06360514 60.38161564 144.28540802 C58.3526592 144.38027277 56.32402352 144.45480509 54.29399109 144.52233887 C51.88997786 144.60816191 49.4868434 144.73209959 47.08747864 144.90441895 C42.26697005 145.03875541 39.227955 144.88952889 35.25088501 142.00854492 C32.64496781 139.45054581 30.32366924 136.81663244 28 134 C22.9948133 128.0989199 17.70165148 122.5631223 12.21899414 117.10546875 C10.9446199 115.83087547 10.9446199 115.83087547 9.64450073 114.53053284 C7.33894061 112.22554557 5.03119363 109.92277645 2.72241139 107.62101746 C0.30095919 105.20586242 -2.11761739 102.787831 -4.53651428 100.37011719 C-9.10647454 95.80325162 -13.67897542 91.23893879 -18.25241905 86.6755619 C-23.46366502 81.47553522 -28.6720351 76.27263203 -33.88017833 71.06949806 C-44.58361274 60.37648584 -55.29061191 49.68704968 -66 39 C-64.6683366 35.0050098 -63.10622452 34.67397162 -59.4375 32.69921875 C-58.86276947 32.3861528 -58.28803894 32.07308685 -57.69589233 31.75053406 C-55.80176162 30.72096527 -53.9009385 29.70443542 -52 28.6875 C-50.68512781 27.97519406 -49.37084258 27.26180363 -48.05712891 26.54736328 C-46.03866067 25.44978943 -44.0198599 24.35288979 -41.99917603 23.25939941 C-35.41999312 19.69791764 -28.89425819 16.04508239 -22.375 12.375 C-14.94542451 8.19586378 -7.49290683 4.06466034 0 0 Z " fill="#E95D1F" transform="translate(424,196)"/>
<path d="M0 0 C1.88138672 0.05414063 1.88138672 0.05414063 3.80078125 0.109375 C5.22970703 0.17898438 5.22970703 0.17898438 6.6875 0.25 C5.2675745 3.48048748 3.55130613 5.63242488 1.0546875 8.11328125 C0.33023438 8.83580078 -0.39421875 9.55832031 -1.140625 10.30273438 C-2.27757812 11.42131836 -2.27757812 11.42131836 -3.4375 12.5625 C-4.17226563 13.29662109 -4.90703125 14.03074219 -5.6640625 14.78710938 C-9.83217158 18.92219646 -14.09722747 22.89085527 -18.54394531 26.72436523 C-20.77600315 28.64983865 -22.94942404 30.6361197 -25.125 32.625 C-29.39074009 36.47583528 -33.79043922 40.11733824 -38.2578125 43.73046875 C-41.8528987 46.69572527 -45.36472769 49.74780948 -48.875 52.8125 C-53.7036749 57.02106632 -58.57267066 61.14099264 -63.60546875 65.10546875 C-66.42226037 67.33695302 -69.20896949 69.60236209 -71.99316406 71.87426758 C-79.34738079 77.87407984 -86.73657795 83.82313698 -94.23681641 89.63964844 C-95.77210045 90.8307486 -97.30531626 92.02451572 -98.83740234 93.21972656 C-101.61493949 95.38328182 -104.40036396 97.53632869 -107.1875 99.6875 C-108.06752686 100.37432861 -108.94755371 101.06115723 -109.85424805 101.76879883 C-122.99339076 111.85638218 -122.99339076 111.85638218 -131.4375 111.6875 C-132.40945313 111.68621094 -133.38140625 111.68492188 -134.3828125 111.68359375 C-139.96670144 110.85717819 -143.82666057 108.09329699 -147.875 104.3125 C-148.7309375 103.51972656 -149.586875 102.72695312 -150.46875 101.91015625 C-151.4071875 101.03230469 -152.345625 100.15445313 -153.3125 99.25 C-154.38417981 98.26817948 -155.45714251 97.28775781 -156.53125 96.30859375 C-164.16576713 89.33668242 -171.78499832 82.36004866 -178.5390625 74.515625 C-182.42588862 70.04655336 -186.5886345 65.8983044 -190.8125 61.75 C-195.67319458 56.97625881 -200.3584151 52.14799068 -204.80273438 46.98242188 C-206.55228548 44.97485159 -208.3971299 43.09932285 -210.3125 41.25 C-213.41839614 38.18543707 -216.30035791 35.01242702 -219.140625 31.703125 C-221.48979747 29.04974315 -223.90893479 26.47310725 -226.34057617 23.89550781 C-242.6179237 6.6391526 -242.6179237 6.6391526 -245.3125 1.25 C-231.66016039 -0.12200932 -231.66016039 -0.12200932 -226.3046875 3.0078125 C-223.81551086 5.30971566 -221.55929102 7.71264038 -219.3125 10.25 C-218.06153646 11.37662842 -216.7913327 12.48237906 -215.5 13.5625 C-211.33136468 17.19216025 -207.28488568 20.94957904 -203.23120117 24.70629883 C-199.94783221 27.747122 -196.64599389 30.76397127 -193.3125 33.75 C-189.44587381 37.2148988 -185.62238287 40.72306752 -181.8125 44.25 C-177.16518641 48.55136643 -172.4882294 52.81586578 -167.76953125 57.0390625 C-166.04975503 58.58658769 -164.33957184 60.14480984 -162.63671875 61.7109375 C-156.37572641 67.46715393 -149.93444185 72.91540069 -143.3125 78.25 C-141.24712127 79.93400807 -139.18622653 81.62340272 -137.125 83.3125 C-136.20332031 84.06660156 -135.28164063 84.82070312 -134.33203125 85.59765625 C-133.66558594 86.14292969 -132.99914062 86.68820313 -132.3125 87.25 C-124.63044295 83.68415908 -117.68506098 79.37923189 -110.6875 74.625 C-109.63208008 73.91424316 -108.57666016 73.20348633 -107.48925781 72.47119141 C-104.42547989 70.40452033 -101.36777632 68.32921294 -98.3125 66.25 C-97.5400293 65.72535156 -96.76755859 65.20070313 -95.97167969 64.66015625 C-91.39971441 61.55044458 -86.85106985 58.40820519 -82.3125 55.25 C-81.54518555 54.71697266 -80.77787109 54.18394531 -79.98730469 53.63476562 C-43.64011413 29.47205765 -43.64011413 29.47205765 -9.91796875 1.9921875 C-6.45412546 -0.32396559 -4.12296663 -0.15412959 0 0 Z " fill="#E85D1F" transform="translate(511.3125,9.75)"/>
<path d="M0 0 C9.94353544 7.78002845 14.88962187 17.72788527 16.56640625 30.19140625 C17.06619773 41.2674304 13.23283854 51.28379471 6.46484375 59.9296875 C-0.95255139 67.89416324 -10.32737113 72.84775651 -21.1953125 73.61328125 C-34.32323769 73.8736472 -45.09944081 70.73677135 -54.78515625 61.4921875 C-63.47581924 52.08191547 -66.32578197 41.88861968 -66.125 29.1640625 C-65.2387948 18.41882451 -59.88178711 8.98522335 -52.125 1.625 C-36.93241099 -10.93810245 -16.03040712 -10.78885711 0 0 Z " fill="#E95D1F" transform="translate(1548.8125,7.625)"/>
<path d="M0 0 C0.66 0.33 1.32 0.66 2 1 C2 1.66 2 2.32 2 3 C0.3203125 4.32421875 0.3203125 4.32421875 -1.875 5.6875 C-2.59429687 6.14511719 -3.31359375 6.60273438 -4.0546875 7.07421875 C-5.01761719 7.53248047 -5.01761719 7.53248047 -6 8 C-6.66 7.67 -7.32 7.34 -8 7 C-5.36 4.69 -2.72 2.38 0 0 Z " fill="#D65015" transform="translate(101,374)"/>
</svg>
